<?xml version="1.0" encoding="UTF-8"?>
<svg width="28px" height="28px" viewBox="0 0 28 28" version="1.1" xmlns="http://www.w3.org/2000/svg" xmlns:xlink="http://www.w3.org/1999/xlink">
    <!-- Generator: Sketch 52.5 (67469) - http://www.bohemiancoding.com/sketch -->
    <title>icon_qustion_normal</title>
    <desc>Created with Sketch.</desc>
    <defs>
        <path d="M8.30454562,1.70661157 C4.87202736,2.08609932 1.38409091,5.14495369 1.38409091,9.38636364 C1.38409091,11.2143761 1.37023643,12.6949235 1.13876616,13.8892183 C0.907295895,15.083513 -0.347712195,16.8932879 0.395526973,17.0661157 C3.60215066,17.1612793 6.75952804,17.0661157 8.30454562,17.0661157 L8.30454562,1.70661157 Z" id="path-1"></path>
        <path d="M8.30454562,1.70661157 C4.87202736,2.08609932 1.38409091,5.14495369 1.38409091,9.38636364 C1.38409091,11.2143761 1.37023643,12.6949235 1.13876616,13.8892183 C0.907295895,15.083513 -0.347712195,16.8932879 0.395526973,17.0661157 C3.60215066,17.1612793 6.75952804,17.0661157 8.30454562,17.0661157 L8.30454562,1.70661157 Z" id="path-3"></path>
    </defs>
    <g id="icon_qustion_normal" stroke="none" stroke-width="1" fill="none" fill-rule="evenodd">
        <g id="notification">
            <path d="M14,28 C21.7319865,28 28,21.7319865 28,14 C28,6.2680135 21.7319865,0 14,0 C6.2680135,0 0,6.2680135 0,14 C0,21.7319865 6.2680135,28 14,28 Z" id="Oval-36" fill="#FFBB5A"></path>
            <g id="Group" transform="translate(6.045455, 4.772727)">
                <path d="M8.30454545,15.3595041 C6.87127239,15.3595041 5.709375,16.1235802 5.709375,17.0661157 C5.709375,18.0086512 6.87127239,18.7727273 8.30454545,18.7727273 L8.30454545,15.3595041 Z" id="Oval-45" fill="#FFFFFF"></path>
                <path d="M8.30454545,0 C7.34903008,0 6.57443182,0.764076026 6.57443182,1.70661157 C6.57443182,2.64914711 7.34903008,3.41322314 8.30454545,3.41322314 L8.30454545,0 Z" id="Oval-44" fill="#FFEFD9"></path>
                <mask id="mask-2" fill="white">
                    <use xlink:href="#path-1"></use>
                </mask>
                <use id="Oval-45" fill="#FFEFD9" xlink:href="#path-1"></use>
                <rect id="Rectangle-71" fill="#EE5351" mask="url(#mask-2)" x="1.03806818" y="11.946281" width="7.26647727" height="2.04793388"></rect>
            </g>
            <g id="Group-2" transform="translate(17.977273, 14.159091) scale(-1, 1) translate(-17.977273, -14.159091) translate(13.681818, 4.772727)">
                <path d="M8.30454545,15.3595041 C6.87127239,15.3595041 5.709375,16.1235802 5.709375,17.0661157 C5.709375,18.0086512 6.87127239,18.7727273 8.30454545,18.7727273 L8.30454545,15.3595041 Z" id="Oval-45" fill="#FFFFFF"></path>
                <path d="M8.30454545,0 C7.34903008,0 6.57443182,0.764076026 6.57443182,1.70661157 C6.57443182,2.64914711 7.34903008,3.41322314 8.30454545,3.41322314 L8.30454545,0 Z" id="Oval-44" fill="#FFEFD9"></path>
                <mask id="mask-4" fill="white">
                    <use xlink:href="#path-3"></use>
                </mask>
                <use id="Oval-45" fill="#FFEFD9" xlink:href="#path-3"></use>
                <rect id="Rectangle-71" fill="#EE5351" mask="url(#mask-4)" x="1.03806818" y="11.946281" width="8.1416464" height="2.04793388"></rect>
            </g>
        </g>
    </g>
</svg>